<svg xmlns="http://www.w3.org/2000/svg" width="120" height="42" viewBox="0 0 120 42">
  <g id="Grupo_40" data-name="Grupo 40" transform="translate(-340.5 -279.5)">
    <g id="Grupo_39" data-name="Grupo 39">
      <path id="Trazado_64" data-name="Trazado 64" d="M343.908,279.953l113.354.2c1.584,0,3-.235,3,3.161l-.139,37.329H341.047V283.176C341.047,281.5,341.209,279.953,343.908,279.953Z" fill="#aab2ab"/>
      <path id="Trazado_65" data-name="Trazado 65" d="M458.254,279.5H342.748a2.25,2.25,0,0,0-2.248,2.247v39.246a.507.507,0,0,0,.507.507H459.992a.507.507,0,0,0,.508-.507V281.747A2.249,2.249,0,0,0,458.254,279.5Zm-115.506,1.015H458.254a1.231,1.231,0,0,1,1.23,1.232v27.221H376.928a17.749,17.749,0,0,1-31.092,0h-4.321V281.747A1.233,1.233,0,0,1,342.748,280.515Z"/>
      <g id="Grupo_30" data-name="Grupo 30">
        <path id="Trazado_66" data-name="Trazado 66" d="M375.022,299.051a13.635,13.635,0,0,1-27.27.017v-.017a13.635,13.635,0,0,1,27.27-.016Z" fill="#fff"/>
        <g id="Grupo_29" data-name="Grupo 29">
          <path id="Trazado_67" data-name="Trazado 67" d="M372.472,287.947a15.1,15.1,0,0,1,4.535,11.1,14.845,14.845,0,0,1-4.458,10.988,15.414,15.414,0,0,1-11.182,4.652,15.752,15.752,0,0,1-15.6-15.64,15.3,15.3,0,0,1,4.613-11.1,14.874,14.874,0,0,1,10.986-4.536A15.1,15.1,0,0,1,372.472,287.947Zm-20.056,2.034a12.485,12.485,0,0,0-3.834,9.074,12.96,12.96,0,0,0,12.832,12.791,12.538,12.538,0,0,0,9.115-3.833,11.948,11.948,0,0,0,3.677-8.958,12.756,12.756,0,0,0-12.792-12.829A12.112,12.112,0,0,0,352.416,289.981Zm6.727,7.549a1.877,1.877,0,0,0-1.755-1.278q-2.067,0-2.067,2.784t2.067,2.782a2,2,0,0,0,1.951-1.356l1.911,1.017a4.423,4.423,0,0,1-4.1,2.428,4.515,4.515,0,0,1-3.376-1.292,4.867,4.867,0,0,1-1.269-3.564,4.8,4.8,0,0,1,1.308-3.543,4.415,4.415,0,0,1,3.26-1.312,4.354,4.354,0,0,1,4.139,2.275Zm8.991,0a1.86,1.86,0,0,0-1.72-1.278q-2.109,0-2.11,2.784t2.11,2.782a1.936,1.936,0,0,0,1.915-1.356l1.953,1.017a4.414,4.414,0,0,1-4.093,2.428,4.507,4.507,0,0,1-3.371-1.292,5.584,5.584,0,0,1,.021-7.107,4.825,4.825,0,0,1,7.4.963Z"/>
        </g>
      </g>
      <g id="Grupo_32" data-name="Grupo 32">
        <path id="Trazado_68" data-name="Trazado 68" d="M392.264,283.986a10.738,10.738,0,1,1-10.74,10.738A10.739,10.739,0,0,1,392.264,283.986Z" fill="#fff"/>
        <g id="Grupo_31" data-name="Grupo 31">
          <path id="Trazado_69" data-name="Trazado 69" d="M395.372,291.617a.749.749,0,0,0-.75-.749h-4.743a.749.749,0,0,0-.749.749v4.742h1.323v5.617h3.6v-5.617h1.324v-4.742Z"/>
          <path id="Trazado_70" data-name="Trazado 70" d="M392.251,287a1.622,1.622,0,1,1-1.623,1.622A1.623,1.623,0,0,1,392.251,287Z"/>
        </g>
        <path id="Trazado_71" data-name="Trazado 71" d="M392.236,282.893a11.052,11.052,0,0,0-8.156,3.362,11.337,11.337,0,0,0-3.425,8.232,11.687,11.687,0,0,0,11.581,11.6,11.452,11.452,0,0,0,8.3-3.449,11,11,0,0,0,3.309-8.146,11.489,11.489,0,0,0-11.611-11.594Zm.03,2.086a9.51,9.51,0,0,1,9.492,9.508,8.842,8.842,0,0,1-2.73,6.638,9.3,9.3,0,0,1-6.762,2.841,9.447,9.447,0,0,1-6.677-16.2A8.995,8.995,0,0,1,392.266,284.979Z"/>
      </g>
      <g id="Grupo_33" data-name="Grupo 33">
        <path id="Trazado_72" data-name="Trazado 72" d="M388.9,312.248a4.114,4.114,0,0,1,.864.083,1.885,1.885,0,0,1,.67.274,1.267,1.267,0,0,1,.431.5,1.778,1.778,0,0,1,.153.78,1.432,1.432,0,0,1-.228.833,1.652,1.652,0,0,1-.673.548,1.59,1.59,0,0,1,.917.617,2.018,2.018,0,0,1,.108,1.929,1.68,1.68,0,0,1-.526.6,2.32,2.32,0,0,1-.752.344,3.419,3.419,0,0,1-.87.111h-3.216v-6.621Zm-.186,2.678a1.051,1.051,0,0,0,.64-.186.694.694,0,0,0,.252-.6.761.761,0,0,0-.084-.38.622.622,0,0,0-.223-.232.943.943,0,0,0-.32-.115,2.213,2.213,0,0,0-.377-.032h-1.364v1.545Zm.085,2.81a1.873,1.873,0,0,0,.409-.042,1.057,1.057,0,0,0,.344-.138.716.716,0,0,0,.237-.265.921.921,0,0,0,.088-.427.854.854,0,0,0-.288-.727,1.233,1.233,0,0,0-.762-.217h-1.589v1.816Z" fill="#fff"/>
        <path id="Trazado_73" data-name="Trazado 73" d="M391.6,312.248h1.632l1.551,2.615,1.542-2.615h1.624l-2.459,4.08v2.541h-1.46v-2.578Z" fill="#fff"/>
      </g>
      <g id="Grupo_34" data-name="Grupo 34">
        <path id="Trazado_74" data-name="Trazado 74" d="M438.94,317.232a1.046,1.046,0,0,0,.32.375,1.354,1.354,0,0,0,.467.214,2.178,2.178,0,0,0,.556.07,2.709,2.709,0,0,0,.416-.033,1.4,1.4,0,0,0,.416-.126.9.9,0,0,0,.324-.254.643.643,0,0,0,.129-.413.573.573,0,0,0-.172-.435,1.328,1.328,0,0,0-.448-.278,4.485,4.485,0,0,0-.63-.2q-.351-.082-.713-.185a6.588,6.588,0,0,1-.722-.227,2.5,2.5,0,0,1-.631-.348,1.631,1.631,0,0,1-.447-.533,1.6,1.6,0,0,1-.172-.775,1.739,1.739,0,0,1,.217-.886,1.988,1.988,0,0,1,.57-.627,2.46,2.46,0,0,1,.8-.37,3.362,3.362,0,0,1,.888-.121,4.157,4.157,0,0,1,1,.117,2.481,2.481,0,0,1,.848.375,1.911,1.911,0,0,1,.589.664,2.043,2.043,0,0,1,.217.979h-1.412a1.17,1.17,0,0,0-.125-.49.805.805,0,0,0-.282-.307,1.175,1.175,0,0,0-.4-.157,2.374,2.374,0,0,0-.494-.047,1.758,1.758,0,0,0-.351.037.9.9,0,0,0-.318.13.776.776,0,0,0-.235.232.621.621,0,0,0-.093.352.592.592,0,0,0,.074.315.657.657,0,0,0,.292.224,3.773,3.773,0,0,0,.6.2c.256.068.592.156,1.006.26q.184.037.512.135a2.461,2.461,0,0,1,.654.31,2.023,2.023,0,0,1,.561.571,1.628,1.628,0,0,1,.235.914,2.04,2.04,0,0,1-.176.845,1.821,1.821,0,0,1-.524.672,2.489,2.489,0,0,1-.863.44,4,4,0,0,1-1.191.159,4.219,4.219,0,0,1-1.063-.135,2.71,2.71,0,0,1-.908-.423,2.105,2.105,0,0,1-.627-.734,2.189,2.189,0,0,1-.222-1.059h1.413A1.205,1.205,0,0,0,438.94,317.232Z" fill="#fff"/>
        <path id="Trazado_75" data-name="Trazado 75" d="M447.146,312.248l2.477,6.621h-1.512l-.5-1.474h-2.476l-.52,1.474h-1.466l2.505-6.621Zm.083,4.06-.835-2.428h-.019l-.861,2.428Z" fill="#fff"/>
      </g>
      <g id="Grupo_35" data-name="Grupo 35">
        <path id="Trazado_76" data-name="Trazado 76" d="M413.018,312.248l2.768,4.442h.016v-4.442h1.365v6.621H415.71l-2.757-4.434h-.018v4.434h-1.367v-6.621Z" fill="#fff"/>
        <path id="Trazado_77" data-name="Trazado 77" d="M422.7,314.012a1.453,1.453,0,0,0-.324-.367,1.52,1.52,0,0,0-.955-.334,1.7,1.7,0,0,0-.836.19,1.569,1.569,0,0,0-.557.51,2.229,2.229,0,0,0-.31.727,3.564,3.564,0,0,0-.1.844,3.31,3.31,0,0,0,.1.811,2.175,2.175,0,0,0,.31.71,1.59,1.59,0,0,0,.557.5,1.7,1.7,0,0,0,.836.191,1.349,1.349,0,0,0,1.043-.408,1.9,1.9,0,0,0,.459-1.076h1.41a3.372,3.372,0,0,1-.287,1.122,2.669,2.669,0,0,1-.613.855,2.583,2.583,0,0,1-.891.539,3.228,3.228,0,0,1-1.121.187,3.389,3.389,0,0,1-1.37-.265,2.965,2.965,0,0,1-1.026-.728,3.226,3.226,0,0,1-.641-1.09,4,4,0,0,1-.223-1.352,4.126,4.126,0,0,1,.223-1.377,3.3,3.3,0,0,1,.641-1.109,2.934,2.934,0,0,1,1.026-.742,3.543,3.543,0,0,1,2.4-.112,2.791,2.791,0,0,1,.872.461,2.462,2.462,0,0,1,.636.746,2.693,2.693,0,0,1,.315,1.022h-1.41A1.179,1.179,0,0,0,422.7,314.012Z" fill="#fff"/>
      </g>
      <g id="Grupo_37" data-name="Grupo 37">
        <path id="Trazado_78" data-name="Trazado 78" d="M455.08,294.481a10.585,10.585,0,0,1-21.17.014v-.014a10.585,10.585,0,0,1,21.17-.016Z" fill="#fff"/>
        <g id="Grupo_36" data-name="Grupo 36">
          <path id="Trazado_79" data-name="Trazado 79" d="M444.419,282.886a11.054,11.054,0,0,0-8.156,3.362,11.34,11.34,0,0,0-3.426,8.233,11.69,11.69,0,0,0,11.582,11.6,11.458,11.458,0,0,0,8.3-3.449,11.007,11.007,0,0,0,3.308-8.146,11.489,11.489,0,0,0-11.61-11.6Zm.028,2.087a9.507,9.507,0,0,1,9.492,9.508,8.846,8.846,0,0,1-2.728,6.638,9.308,9.308,0,0,1-6.764,2.84,9.448,9.448,0,0,1-6.676-16.2A8.99,8.99,0,0,1,444.447,284.973Z"/>
          <path id="Trazado_80" data-name="Trazado 80" d="M439.279,292.845a4.94,4.94,0,0,1,5.09-4.478c3.7,0,5.958,2.686,5.958,6.268a5.9,5.9,0,0,1-6.017,6.21,4.97,4.97,0,0,1-5.119-4.534h2.922c.087,1.559,1.1,2.108,2.545,2.108,1.649,0,2.719-1.531,2.719-3.87,0-2.456-.925-3.755-2.661-3.755a2.287,2.287,0,0,0-2.6,2.051l.85-.006-2.3,2.3-2.3-2.3Z"/>
        </g>
      </g>
      <g id="Grupo_38" data-name="Grupo 38">
        <path id="Trazado_81" data-name="Trazado 81" d="M428.3,294.491a9.96,9.96,0,0,1-19.92.014v-.014a9.96,9.96,0,0,1,19.92-.015Z" fill="#fff"/>
        <path id="Trazado_82" data-name="Trazado 82" d="M426.57,286.255a11.215,11.215,0,0,0-8.243-3.362,11.054,11.054,0,0,0-8.157,3.362,11.345,11.345,0,0,0-3.424,8.234,11.688,11.688,0,0,0,11.581,11.6,11.455,11.455,0,0,0,8.3-3.45,11,11,0,0,0,3.309-8.147A11.188,11.188,0,0,0,426.57,286.255Zm-1.451,14.873a9.306,9.306,0,0,1-6.763,2.841,9.61,9.61,0,0,1-9.521-9.48,9.273,9.273,0,0,1,.511-3.084l3.073,1.36H412.2v1.378h1.088c0,.2-.019.389-.019.583v.33H412.2v1.379h1.262a5.478,5.478,0,0,0,1.088,2.524,5.841,5.841,0,0,0,4.736,2.213,6.534,6.534,0,0,0,3.029-.738l-.466-2.155a5.384,5.384,0,0,1-2.213.505,3.248,3.248,0,0,1-2.5-.99,3.071,3.071,0,0,1-.641-1.359h4.221l6,2.654A8.913,8.913,0,0,1,425.119,301.128Zm-7.542-6.072-.026-.019.045.019Zm3.61-.913h.174v-1.378h-3.287l-1.336-.591a2.656,2.656,0,0,1,.41-.67,2.952,2.952,0,0,1,2.388-1.049,5.713,5.713,0,0,1,2.154.466l.544-2.213a7.362,7.362,0,0,0-2.912-.582,5.877,5.877,0,0,0-4.484,1.98,5.982,5.982,0,0,0-.653.938l-3.813-1.687a10.7,10.7,0,0,1,1.308-1.594,8.991,8.991,0,0,1,6.676-2.784,9.509,9.509,0,0,1,9.492,9.51,10.092,10.092,0,0,1-.295,2.471Z"/>
      </g>
    </g>
  </g>
</svg>
