<svg xmlns="http://www.w3.org/2000/svg" width="85.563" height="83.008" viewBox="0 0 85.563 83.008">
  <g id="Grupo_28" data-name="Grupo 28" transform="translate(-344.581 -245.701)">
    <path id="Trazado_55" data-name="Trazado 55" d="M406.791,255.162a9.461,9.461,0,1,1-9.461-9.461A9.461,9.461,0,0,1,406.791,255.162Z" transform="translate(-9.968 0)" fill="#000000"/>
    <g id="Grupo_26" data-name="Grupo 26" transform="translate(346.198 266.597)">
      <path id="Trazado_56" data-name="Trazado 56" d="M357.947,276.778a1.268,1.268,0,0,0-.93-.845,5.4,5.4,0,0,0-1.668-.224c-1.422,0-2.051.259-2.051.707,0,1.861,11.32.707,11.32,5.223,0,2.879-3.8,4.275-9.214,4.275-5.195,0-8.586-1.914-8.723-4.154h6.179a1.62,1.62,0,0,0,1.066.983,5.23,5.23,0,0,0,1.832.309c1.613,0,2.679-.327,2.679-.914,0-1.879-11.32-.586-11.32-5.327,0-2.638,3.609-3.965,8.531-3.965,5.468,0,7.957,1.758,8.422,3.93Z" transform="translate(-346.682 -272.848)" fill="#000000"/>
      <path id="Trazado_57" data-name="Trazado 57" d="M373.856,285.686V273.273h16.05v2.9h-9.6v1.776h8.121v2.9h-8.121v1.948h9.98v2.9Z" transform="translate(-352.939 -272.946)" fill="#000000"/>
      <path id="Trazado_58" data-name="Trazado 58" d="M412.323,280.048l-.246-2.827v-3.948h6.179v12.413h-6.042l-7.027-6.758.246,2.827v3.931h-6.18V273.273H405.3Z" transform="translate(-358.787 -272.946)" fill="#000000"/>
      <path id="Trazado_59" data-name="Trazado 59" d="M426.783,285.686l7.055-12.413H440.4l7.055,12.413h-6.426l-.766-1.638h-6.425l-.739,1.638Zm10.281-8.672-2,4.448h4.074Z" transform="translate(-365.126 -272.946)" fill="#000000"/>
    </g>
    <g id="Grupo_27" data-name="Grupo 27" transform="translate(344.581 282.04)">
      <path id="Trazado_60" data-name="Trazado 60" d="M443.7,292.911H404.247l22.964,40.783,5.063-4.409L413.9,298.606l29.978-.074Z" transform="translate(-358.32 -292.911)" fill="#000000"/>
      <path id="Trazado_61" data-name="Trazado 61" d="M344.764,292.911h39.452l-22.964,40.783-5.063-4.409,18.371-30.679-29.978-.074Z" transform="translate(-344.581 -292.911)" fill="#000000"/>
      <path id="Trazado_62" data-name="Trazado 62" d="M371.949,339.032l21.534-37.154,22.143,36.79-5.847,2.64L393.971,313.05l-16.823,28.594Z" transform="translate(-350.883 -294.976)" fill="#000000"/>
    </g>
  </g>
</svg>
